# xmcd
#
# Track frame offsets:
#	150
#	18880
#	33759
#	49269
#	62608
#	75732
#	93151
#	110152
#	122144
#	136296
#	150691
#	168728
#
# Disc length: 2415 seconds
#
# Revision: 0
# Processed by: cddbd v1.5.2PL0 Copyright (c) Steve Scherf et al.
# Submitted via: EasyCDDAExtractor 12.0.7.1
#
DISCID=97096d0c
DTITLE=KAMELOT - album
DYEAR=2012
DGENRE=FOLK-ROCK
TTITLE0=PROTI PROUDU
TTITLE1=KROKY ZA DUHOU
TTITLE2=KDYZ ZAMRZA REKA
TTITLE3=TAHLE ZEME NENI PRO STARY
TTITLE4=LUCIFER
TTITLE5=SHANGRI-LA
TTITLE6=FENIX
TTITLE7=POHLEDY Z ARDENTINY
TTITLE8=ZA HRAZI
TTITLE9=AFGHANISTAN
TTITLE10=USPESNY MUZ
TTITLE11=POHRDNES STRIBREM, ZLATA SE NEDOCKAS
EXTD=
EXTT0=
EXTT1=
EXTT2=
EXTT3=
EXTT4=
EXTT5=
EXTT6=
EXTT7=
EXTT8=
EXTT9=
EXTT10=
EXTT11=
PLAYORDER=
